<mxfile host="app.diagrams.net" agent="Mozilla/5.0 (X11; CrOS armv7l 13597.84.0) AppleWebKit/537.36 (KHTML, like Gecko) Chrome/92.0.4515.98 Safari/537.36" version="28.2.5">
  <diagram name="PÃ¡gina-1" id="W5UBHec2v-LbBHFmvyQv">
    <mxGraphModel dx="2393" dy="851" grid="1" gridSize="10" guides="1" tooltips="1" connect="1" arrows="1" fold="1" page="1" pageScale="1" pageWidth="827" pageHeight="1169" math="0" shadow="0">
      <root>
        <mxCell id="0" />
        <mxCell id="1" parent="0" />
        <mxCell id="a0-rwzOCjx9Mt6NF2cHN-6" style="edgeStyle=orthogonalEdgeStyle;rounded=0;orthogonalLoop=1;jettySize=auto;html=1;exitX=0.5;exitY=1;exitDx=0;exitDy=0;entryX=0.5;entryY=0;entryDx=0;entryDy=0;" parent="1" source="a0-rwzOCjx9Mt6NF2cHN-1" target="a0-rwzOCjx9Mt6NF2cHN-2" edge="1">
          <mxGeometry relative="1" as="geometry" />
        </mxCell>
        <mxCell id="a0-rwzOCjx9Mt6NF2cHN-8" value="" style="edgeStyle=orthogonalEdgeStyle;rounded=0;orthogonalLoop=1;jettySize=auto;html=1;" parent="1" source="a0-rwzOCjx9Mt6NF2cHN-1" target="a0-rwzOCjx9Mt6NF2cHN-7" edge="1">
          <mxGeometry relative="1" as="geometry" />
        </mxCell>
        <mxCell id="a0-rwzOCjx9Mt6NF2cHN-1" value="&lt;h5&gt;&lt;font style=&quot;font-size: 16px;&quot;&gt;chega final de 2025 e surge proposta de dois clube de serie B do campeonato brasileiro quel melhor proposta ?&amp;nbsp;&lt;/font&gt;&lt;/h5&gt;" style="text;html=1;whiteSpace=wrap;overflow=hidden;rounded=0;fillColor=#e51400;fontColor=#ffffff;strokeColor=#B20000;" parent="1" vertex="1">
          <mxGeometry x="270" y="80" width="210" height="140" as="geometry" />
        </mxCell>
        <mxCell id="a0-rwzOCjx9Mt6NF2cHN-9" style="edgeStyle=orthogonalEdgeStyle;rounded=0;orthogonalLoop=1;jettySize=auto;html=1;exitX=0.5;exitY=1;exitDx=0;exitDy=0;" parent="1" source="a0-rwzOCjx9Mt6NF2cHN-2" edge="1">
          <mxGeometry relative="1" as="geometry">
            <mxPoint x="-40" y="530" as="targetPoint" />
          </mxGeometry>
        </mxCell>
        <mxCell id="a0-rwzOCjx9Mt6NF2cHN-2" value="&lt;h1 style=&quot;margin-top: 0px;&quot;&gt;&lt;span style=&quot;font-size: 15px;&quot;&gt;&amp;nbsp;primeira proposta&amp;nbsp; mirasol&amp;nbsp; &amp;nbsp; pra disputa campeonato brasileiro e copa do brasil e estadual e ganha 70 mil por mes&amp;nbsp;&lt;/span&gt;&lt;/h1&gt;" style="text;html=1;whiteSpace=wrap;overflow=hidden;rounded=0;fillColor=#1ba1e2;fontColor=#ffffff;strokeColor=#006EAF;" parent="1" vertex="1">
          <mxGeometry x="60" y="310" width="210" height="140" as="geometry" />
        </mxCell>
        <mxCell id="a0-rwzOCjx9Mt6NF2cHN-10" style="edgeStyle=orthogonalEdgeStyle;rounded=0;orthogonalLoop=1;jettySize=auto;html=1;exitX=0.5;exitY=1;exitDx=0;exitDy=0;" parent="1" source="a0-rwzOCjx9Mt6NF2cHN-7" edge="1">
          <mxGeometry relative="1" as="geometry">
            <mxPoint x="830" y="520" as="targetPoint" />
          </mxGeometry>
        </mxCell>
        <mxCell id="a0-rwzOCjx9Mt6NF2cHN-7" value="&lt;span style=&quot;font-size: 16px;&quot;&gt;segunda proposta chapecoense pra joga campeonato brasileiro e copa do brasil e estadual pra ganha 100 mil por mes&amp;nbsp;&lt;/span&gt;" style="text;html=1;whiteSpace=wrap;overflow=hidden;rounded=0;fillColor=#e3c800;fontColor=#000000;strokeColor=#B09500;" parent="1" vertex="1">
          <mxGeometry x="480" y="310" width="210" height="140" as="geometry" />
        </mxCell>
        <mxCell id="o58Nc44f7ltlPzZKtUj9-1" style="edgeStyle=orthogonalEdgeStyle;rounded=0;orthogonalLoop=1;jettySize=auto;html=1;exitX=0.5;exitY=1;exitDx=0;exitDy=0;" parent="1" source="a0-rwzOCjx9Mt6NF2cHN-11" edge="1">
          <mxGeometry relative="1" as="geometry">
            <mxPoint x="-65" y="780" as="targetPoint" />
          </mxGeometry>
        </mxCell>
        <mxCell id="a0-rwzOCjx9Mt6NF2cHN-11" value="&lt;h1 style=&quot;margin-top: 0px;&quot;&gt;&lt;span style=&quot;font-size: 20px;&quot;&gt;comeca a tenporada 2026 como titular camisa 6 jogando de lateral e no final do ano em outubro subir o time para a serie A do campeonato brasileiro como melhor defesa do campeonato&lt;/span&gt;&lt;/h1&gt;" style="text;html=1;whiteSpace=wrap;overflow=hidden;rounded=0;fillColor=#1ba1e2;fontColor=#ffffff;strokeColor=#006EAF;" parent="1" vertex="1">
          <mxGeometry x="-210" y="530" width="290" height="230" as="geometry" />
        </mxCell>
        <mxCell id="a0-rwzOCjx9Mt6NF2cHN-13" value="&lt;h1 style=&quot;margin-top: 0px;&quot;&gt;&lt;br&gt;&lt;/h1&gt;" style="text;html=1;whiteSpace=wrap;overflow=hidden;rounded=0;fillColor=#e3c800;fontColor=#000000;strokeColor=#B09500;" parent="1" vertex="1">
          <mxGeometry x="710" y="520" width="270" height="220" as="geometry" />
        </mxCell>
        <mxCell id="2n4wc4P9uDIQy3SASZHh-1" value="" style="shape=parallelogram;perimeter=parallelogramPerimeter;whiteSpace=wrap;html=1;fixedSize=1;" vertex="1" parent="1">
          <mxGeometry x="230" y="350" width="120" height="60" as="geometry" />
        </mxCell>
      </root>
    </mxGraphModel>
  </diagram>
</mxfile>
